solid CATIA STL
  facet normal  0.000000e+000  -0.000000e+000  1.000000e+000
    outer loop
      vertex  4.712987e+000  2.691403e+000  4.132557e+001
      vertex  5.000000e+000  2.061183e+000  4.132557e+001
      vertex  5.000000e+000  2.634313e+000  4.132557e+001
    endloop
  endfacet
  facet normal  -0.000000e+000  0.000000e+000  1.000000e+000
    outer loop
      vertex  5.000000e+000  5.814203e+000  4.132557e+001
      vertex -5.000000e+000  5.814203e+000  4.132557e+001
      vertex -5.000000e+000  4.134313e+000  4.132557e+001
    endloop
  endfacet
  facet normal  -0.000000e+000  0.000000e+000  1.000000e+000
    outer loop
      vertex  5.000000e+000  5.814203e+000  4.132557e+001
      vertex -5.000000e+000  4.134313e+000  4.132557e+001
      vertex -4.712987e+000  4.077222e+000  4.132557e+001
    endloop
  endfacet
  facet normal  -0.000000e+000  0.000000e+000  1.000000e+000
    outer loop
      vertex  5.000000e+000  5.814203e+000  4.132557e+001
      vertex -4.712987e+000  4.077222e+000  4.132557e+001
      vertex -4.469670e+000  3.914643e+000  4.132557e+001
    endloop
  endfacet
  facet normal  -0.000000e+000  0.000000e+000  1.000000e+000
    outer loop
      vertex  5.000000e+000  5.814203e+000  4.132557e+001
      vertex -4.469670e+000  3.914643e+000  4.132557e+001
      vertex -4.307090e+000  3.671325e+000  4.132557e+001
    endloop
  endfacet
  facet normal  -0.000000e+000  0.000000e+000  1.000000e+000
    outer loop
      vertex  5.000000e+000  5.814203e+000  4.132557e+001
      vertex -4.307090e+000  3.671325e+000  4.132557e+001
      vertex -4.250000e+000  3.384313e+000  4.132557e+001
    endloop
  endfacet
  facet normal  0.000000e+000  0.000000e+000  1.000000e+000
    outer loop
      vertex  5.000000e+000  5.814203e+000  4.132557e+001
      vertex -4.250000e+000  3.384313e+000  4.132557e+001
      vertex  4.307090e+000  3.671325e+000  4.132557e+001
    endloop
  endfacet
  facet normal  0.000000e+000  0.000000e+000  1.000000e+000
    outer loop
      vertex  5.000000e+000  5.814203e+000  4.132557e+001
      vertex  4.307090e+000  3.671325e+000  4.132557e+001
      vertex  4.469670e+000  3.914643e+000  4.132557e+001
    endloop
  endfacet
  facet normal  0.000000e+000  0.000000e+000  1.000000e+000
    outer loop
      vertex  5.000000e+000  5.814203e+000  4.132557e+001
      vertex  4.469670e+000  3.914643e+000  4.132557e+001
      vertex  4.712987e+000  4.077222e+000  4.132557e+001
    endloop
  endfacet
  facet normal  0.000000e+000  0.000000e+000  1.000000e+000
    outer loop
      vertex  5.000000e+000  5.814203e+000  4.132557e+001
      vertex  4.712987e+000  4.077222e+000  4.132557e+001
      vertex  5.000000e+000  4.134313e+000  4.132557e+001
    endloop
  endfacet
  facet normal  0.000000e+000  0.000000e+000  1.000000e+000
    outer loop
      vertex -5.000000e+000  2.061183e+000  4.132557e+001
      vertex  5.000000e+000  2.061183e+000  4.132557e+001
      vertex  4.712987e+000  2.691403e+000  4.132557e+001
    endloop
  endfacet
  facet normal  0.000000e+000  0.000000e+000  1.000000e+000
    outer loop
      vertex -5.000000e+000  2.061183e+000  4.132557e+001
      vertex  4.712987e+000  2.691403e+000  4.132557e+001
      vertex  4.469670e+000  2.853982e+000  4.132557e+001
    endloop
  endfacet
  facet normal  0.000000e+000  0.000000e+000  1.000000e+000
    outer loop
      vertex -5.000000e+000  2.061183e+000  4.132557e+001
      vertex  4.469670e+000  2.853982e+000  4.132557e+001
      vertex  4.307090e+000  3.097300e+000  4.132557e+001
    endloop
  endfacet
  facet normal  0.000000e+000  0.000000e+000  9.999999e-001
    outer loop
      vertex -5.000000e+000  2.061183e+000  4.132557e+001
      vertex  4.307090e+000  3.097300e+000  4.132557e+001
      vertex  4.250000e+000  3.384313e+000  4.132557e+001
    endloop
  endfacet
  facet normal  0.000000e+000  0.000000e+000  9.999999e-001
    outer loop
      vertex -5.000000e+000  2.061183e+000  4.132557e+001
      vertex  4.250000e+000  3.384313e+000  4.132557e+001
      vertex -4.712987e+000  2.691403e+000  4.132557e+001
    endloop
  endfacet
  facet normal  0.000000e+000  0.000000e+000  1.000000e+000
    outer loop
      vertex -5.000000e+000  2.061183e+000  4.132557e+001
      vertex -4.712987e+000  2.691403e+000  4.132557e+001
      vertex -5.000000e+000  2.634313e+000  4.132557e+001
    endloop
  endfacet
  facet normal  0.000000e+000  0.000000e+000  1.000000e+000
    outer loop
      vertex  4.250000e+000  3.384313e+000  4.132557e+001
      vertex  4.307090e+000  3.671325e+000  4.132557e+001
      vertex -4.250000e+000  3.384313e+000  4.132557e+001
    endloop
  endfacet
  facet normal  -0.000000e+000  0.000000e+000  1.000000e+000
    outer loop
      vertex  4.250000e+000  3.384313e+000  4.132557e+001
      vertex -4.250000e+000  3.384313e+000  4.132557e+001
      vertex -4.307090e+000  3.097300e+000  4.132557e+001
    endloop
  endfacet
  facet normal  -0.000000e+000  0.000000e+000  1.000000e+000
    outer loop
      vertex  4.250000e+000  3.384313e+000  4.132557e+001
      vertex -4.307090e+000  3.097300e+000  4.132557e+001
      vertex -4.469670e+000  2.853982e+000  4.132557e+001
    endloop
  endfacet
  facet normal  -0.000000e+000  0.000000e+000  1.000000e+000
    outer loop
      vertex  4.250000e+000  3.384313e+000  4.132557e+001
      vertex -4.469670e+000  2.853982e+000  4.132557e+001
      vertex -4.712987e+000  2.691403e+000  4.132557e+001
    endloop
  endfacet
  facet normal  0.000000e+000  0.000000e+000 -1.000000e+000
    outer loop
      vertex  4.307090e+000  3.097300e+000  3.900000e+001
      vertex  4.469670e+000  2.853982e+000  3.900000e+001
      vertex -4.250000e+000  3.384313e+000  3.900000e+001
    endloop
  endfacet
  facet normal  0.000000e+000  -0.000000e+000 -9.999999e-001
    outer loop
      vertex  4.712987e+000  4.077222e+000  3.900000e+001
      vertex  5.000000e+000  4.514203e+000  3.900000e+001
      vertex  5.000000e+000  4.134313e+000  3.900000e+001
    endloop
  endfacet
  facet normal  0.000000e+000  0.000000e+000 -1.000000e+000
    outer loop
      vertex  5.000000e+000  2.061183e+000  3.900000e+001
      vertex -5.000000e+000  2.061183e+000  3.900000e+001
      vertex -5.000000e+000  2.634313e+000  3.900000e+001
    endloop
  endfacet
  facet normal  0.000000e+000  0.000000e+000 -1.000000e+000
    outer loop
      vertex  5.000000e+000  2.061183e+000  3.900000e+001
      vertex -5.000000e+000  2.634313e+000  3.900000e+001
      vertex -4.712987e+000  2.691403e+000  3.900000e+001
    endloop
  endfacet
  facet normal  0.000000e+000  0.000000e+000 -1.000000e+000
    outer loop
      vertex  5.000000e+000  2.061183e+000  3.900000e+001
      vertex -4.712987e+000  2.691403e+000  3.900000e+001
      vertex -4.469670e+000  2.853982e+000  3.900000e+001
    endloop
  endfacet
  facet normal  0.000000e+000  0.000000e+000 -1.000000e+000
    outer loop
      vertex  5.000000e+000  2.061183e+000  3.900000e+001
      vertex -4.469670e+000  2.853982e+000  3.900000e+001
      vertex -4.307090e+000  3.097300e+000  3.900000e+001
    endloop
  endfacet
  facet normal  0.000000e+000  0.000000e+000 -9.999999e-001
    outer loop
      vertex  5.000000e+000  2.061183e+000  3.900000e+001
      vertex -4.307090e+000  3.097300e+000  3.900000e+001
      vertex -4.250000e+000  3.384313e+000  3.900000e+001
    endloop
  endfacet
  facet normal  0.000000e+000  0.000000e+000 -1.000000e+000
    outer loop
      vertex  5.000000e+000  2.061183e+000  3.900000e+001
      vertex -4.250000e+000  3.384313e+000  3.900000e+001
      vertex  4.469670e+000  2.853982e+000  3.900000e+001
    endloop
  endfacet
  facet normal  0.000000e+000  0.000000e+000 -1.000000e+000
    outer loop
      vertex  5.000000e+000  2.061183e+000  3.900000e+001
      vertex  4.469670e+000  2.853982e+000  3.900000e+001
      vertex  4.712987e+000  2.691403e+000  3.900000e+001
    endloop
  endfacet
  facet normal  0.000000e+000  0.000000e+000 -1.000000e+000
    outer loop
      vertex  5.000000e+000  2.061183e+000  3.900000e+001
      vertex  4.712987e+000  2.691403e+000  3.900000e+001
      vertex  5.000000e+000  2.634313e+000  3.900000e+001
    endloop
  endfacet
  facet normal  -0.000000e+000  0.000000e+000 -1.000000e+000
    outer loop
      vertex -5.000000e+000  4.514203e+000  3.900000e+001
      vertex  5.000000e+000  4.514203e+000  3.900000e+001
      vertex  4.712987e+000  4.077222e+000  3.900000e+001
    endloop
  endfacet
  facet normal  -0.000000e+000  0.000000e+000 -1.000000e+000
    outer loop
      vertex -5.000000e+000  4.514203e+000  3.900000e+001
      vertex  4.712987e+000  4.077222e+000  3.900000e+001
      vertex  4.469670e+000  3.914643e+000  3.900000e+001
    endloop
  endfacet
  facet normal  -0.000000e+000  0.000000e+000 -9.999999e-001
    outer loop
      vertex -5.000000e+000  4.514203e+000  3.900000e+001
      vertex  4.469670e+000  3.914643e+000  3.900000e+001
      vertex  4.307090e+000  3.671325e+000  3.900000e+001
    endloop
  endfacet
  facet normal  -0.000000e+000  0.000000e+000 -1.000000e+000
    outer loop
      vertex -5.000000e+000  4.514203e+000  3.900000e+001
      vertex  4.307090e+000  3.671325e+000  3.900000e+001
      vertex  4.250000e+000  3.384313e+000  3.900000e+001
    endloop
  endfacet
  facet normal  0.000000e+000  0.000000e+000 -1.000000e+000
    outer loop
      vertex -5.000000e+000  4.514203e+000  3.900000e+001
      vertex  4.250000e+000  3.384313e+000  3.900000e+001
      vertex -4.712987e+000  4.077222e+000  3.900000e+001
    endloop
  endfacet
  facet normal  0.000000e+000  0.000000e+000 -9.999999e-001
    outer loop
      vertex -5.000000e+000  4.514203e+000  3.900000e+001
      vertex -4.712987e+000  4.077222e+000  3.900000e+001
      vertex -5.000000e+000  4.134313e+000  3.900000e+001
    endloop
  endfacet
  facet normal  0.000000e+000  0.000000e+000 -1.000000e+000
    outer loop
      vertex  4.250000e+000  3.384313e+000  3.900000e+001
      vertex  4.307090e+000  3.097300e+000  3.900000e+001
      vertex -4.250000e+000  3.384313e+000  3.900000e+001
    endloop
  endfacet
  facet normal  0.000000e+000  0.000000e+000 -1.000000e+000
    outer loop
      vertex  4.250000e+000  3.384313e+000  3.900000e+001
      vertex -4.250000e+000  3.384313e+000  3.900000e+001
      vertex -4.307090e+000  3.671325e+000  3.900000e+001
    endloop
  endfacet
  facet normal  0.000000e+000  0.000000e+000 -1.000000e+000
    outer loop
      vertex  4.250000e+000  3.384313e+000  3.900000e+001
      vertex -4.307090e+000  3.671325e+000  3.900000e+001
      vertex -4.469670e+000  3.914643e+000  3.900000e+001
    endloop
  endfacet
  facet normal  0.000000e+000  0.000000e+000 -1.000000e+000
    outer loop
      vertex  4.250000e+000  3.384313e+000  3.900000e+001
      vertex -4.469670e+000  3.914643e+000  3.900000e+001
      vertex -4.712987e+000  4.077222e+000  3.900000e+001
    endloop
  endfacet
  facet normal  1.000000e+000  0.000000e+000  0.000000e+000
    outer loop
      vertex  5.000000e+000  4.134313e+000  3.900000e+001
      vertex  5.000000e+000  4.514203e+000  3.900000e+001
      vertex  5.000000e+000  4.134313e+000  4.132557e+001
    endloop
  endfacet
  facet normal  1.000000e+000  0.000000e+000  0.000000e+000
    outer loop
      vertex  5.000000e+000  4.134313e+000  4.132557e+001
      vertex  5.000000e+000  4.514203e+000  3.900000e+001
      vertex  5.000000e+000  4.514203e+000  4.000000e+001
    endloop
  endfacet
  facet normal  1.000000e+000  0.000000e+000  -0.000000e+000
    outer loop
      vertex  5.000000e+000  4.134313e+000  4.132557e+001
      vertex  5.000000e+000  4.514203e+000  4.000000e+001
      vertex  5.000000e+000  5.814203e+000  4.132557e+001
    endloop
  endfacet
  facet normal  1.000000e+000  0.000000e+000  0.000000e+000
    outer loop
      vertex  5.000000e+000  5.814203e+000  4.132557e+001
      vertex  5.000000e+000  4.514203e+000  4.000000e+001
      vertex  5.000000e+000  5.814203e+000  4.000000e+001
    endloop
  endfacet
  facet normal  1.000000e+000  0.000000e+000  0.000000e+000
    outer loop
      vertex  5.000000e+000  2.061183e+000  3.900000e+001
      vertex  5.000000e+000  2.634313e+000  3.900000e+001
      vertex  5.000000e+000  2.061183e+000  4.132557e+001
    endloop
  endfacet
  facet normal  1.000000e+000  -0.000000e+000  0.000000e+000
    outer loop
      vertex  5.000000e+000  2.061183e+000  4.132557e+001
      vertex  5.000000e+000  2.634313e+000  3.900000e+001
      vertex  5.000000e+000  2.634313e+000  4.132557e+001
    endloop
  endfacet
  facet normal -1.000000e+000  0.000000e+000  0.000000e+000
    outer loop
      vertex -5.000000e+000  4.514203e+000  3.900000e+001
      vertex -5.000000e+000  4.134313e+000  3.900000e+001
      vertex -5.000000e+000  4.514203e+000  4.000000e+001
    endloop
  endfacet
  facet normal -1.000000e+000  -0.000000e+000  0.000000e+000
    outer loop
      vertex -5.000000e+000  4.514203e+000  4.000000e+001
      vertex -5.000000e+000  4.134313e+000  3.900000e+001
      vertex -5.000000e+000  4.134313e+000  4.132557e+001
    endloop
  endfacet
  facet normal -1.000000e+000  0.000000e+000  0.000000e+000
    outer loop
      vertex -5.000000e+000  4.514203e+000  4.000000e+001
      vertex -5.000000e+000  4.134313e+000  4.132557e+001
      vertex -5.000000e+000  5.814203e+000  4.000000e+001
    endloop
  endfacet
  facet normal -1.000000e+000  0.000000e+000  0.000000e+000
    outer loop
      vertex -5.000000e+000  5.814203e+000  4.000000e+001
      vertex -5.000000e+000  4.134313e+000  4.132557e+001
      vertex -5.000000e+000  5.814203e+000  4.132557e+001
    endloop
  endfacet
  facet normal -1.000000e+000  0.000000e+000  0.000000e+000
    outer loop
      vertex -5.000000e+000  2.634313e+000  3.900000e+001
      vertex -5.000000e+000  2.061183e+000  3.900000e+001
      vertex -5.000000e+000  2.634313e+000  4.132557e+001
    endloop
  endfacet
  facet normal -1.000000e+000  -0.000000e+000  0.000000e+000
    outer loop
      vertex -5.000000e+000  2.634313e+000  4.132557e+001
      vertex -5.000000e+000  2.061183e+000  3.900000e+001
      vertex -5.000000e+000  2.061183e+000  4.132557e+001
    endloop
  endfacet
  facet normal -9.807853e-001 -1.950901e-001  -0.000000e+000
    outer loop
      vertex -4.250000e+000  3.384313e+000  3.900000e+001
      vertex -4.250000e+000  3.384313e+000  4.132557e+001
      vertex -4.307090e+000  3.671325e+000  3.900000e+001
    endloop
  endfacet
  facet normal -9.807853e-001 -1.950901e-001  0.000000e+000
    outer loop
      vertex -4.307090e+000  3.671325e+000  3.900000e+001
      vertex -4.250000e+000  3.384313e+000  4.132557e+001
      vertex -4.307090e+000  3.671325e+000  4.132557e+001
    endloop
  endfacet
  facet normal -8.314698e-001 -5.555700e-001  -0.000000e+000
    outer loop
      vertex -4.307090e+000  3.671325e+000  3.900000e+001
      vertex -4.307090e+000  3.671325e+000  4.132557e+001
      vertex -4.469670e+000  3.914643e+000  3.900000e+001
    endloop
  endfacet
  facet normal -8.314698e-001 -5.555700e-001  0.000000e+000
    outer loop
      vertex -4.469670e+000  3.914643e+000  3.900000e+001
      vertex -4.307090e+000  3.671325e+000  4.132557e+001
      vertex -4.469670e+000  3.914643e+000  4.132557e+001
    endloop
  endfacet
  facet normal -5.555700e-001 -8.314698e-001  -0.000000e+000
    outer loop
      vertex -4.469670e+000  3.914643e+000  3.900000e+001
      vertex -4.469670e+000  3.914643e+000  4.132557e+001
      vertex -4.712987e+000  4.077222e+000  3.900000e+001
    endloop
  endfacet
  facet normal -5.555700e-001 -8.314698e-001  0.000000e+000
    outer loop
      vertex -4.712987e+000  4.077222e+000  3.900000e+001
      vertex -4.469670e+000  3.914643e+000  4.132557e+001
      vertex -4.712987e+000  4.077222e+000  4.132557e+001
    endloop
  endfacet
  facet normal -1.950901e-001 -9.807853e-001  -0.000000e+000
    outer loop
      vertex -4.712987e+000  4.077222e+000  3.900000e+001
      vertex -4.712987e+000  4.077222e+000  4.132557e+001
      vertex -5.000000e+000  4.134313e+000  3.900000e+001
    endloop
  endfacet
  facet normal -1.950901e-001 -9.807853e-001  0.000000e+000
    outer loop
      vertex -5.000000e+000  4.134313e+000  3.900000e+001
      vertex -4.712987e+000  4.077222e+000  4.132557e+001
      vertex -5.000000e+000  4.134313e+000  4.132557e+001
    endloop
  endfacet
  facet normal -1.950901e-001  9.807853e-001  0.000000e+000
    outer loop
      vertex -5.000000e+000  2.634313e+000  3.900000e+001
      vertex -5.000000e+000  2.634313e+000  4.132557e+001
      vertex -4.712987e+000  2.691403e+000  3.900000e+001
    endloop
  endfacet
  facet normal -1.950901e-001  9.807853e-001  0.000000e+000
    outer loop
      vertex -4.712987e+000  2.691403e+000  3.900000e+001
      vertex -5.000000e+000  2.634313e+000  4.132557e+001
      vertex -4.712987e+000  2.691403e+000  4.132557e+001
    endloop
  endfacet
  facet normal -5.555700e-001  8.314698e-001  0.000000e+000
    outer loop
      vertex -4.712987e+000  2.691403e+000  3.900000e+001
      vertex -4.712987e+000  2.691403e+000  4.132557e+001
      vertex -4.469670e+000  2.853982e+000  3.900000e+001
    endloop
  endfacet
  facet normal -5.555700e-001  8.314698e-001  0.000000e+000
    outer loop
      vertex -4.469670e+000  2.853982e+000  3.900000e+001
      vertex -4.712987e+000  2.691403e+000  4.132557e+001
      vertex -4.469670e+000  2.853982e+000  4.132557e+001
    endloop
  endfacet
  facet normal -8.314698e-001  5.555700e-001  0.000000e+000
    outer loop
      vertex -4.469670e+000  2.853982e+000  3.900000e+001
      vertex -4.469670e+000  2.853982e+000  4.132557e+001
      vertex -4.307090e+000  3.097300e+000  3.900000e+001
    endloop
  endfacet
  facet normal -8.314698e-001  5.555700e-001  0.000000e+000
    outer loop
      vertex -4.307090e+000  3.097300e+000  3.900000e+001
      vertex -4.469670e+000  2.853982e+000  4.132557e+001
      vertex -4.307090e+000  3.097300e+000  4.132557e+001
    endloop
  endfacet
  facet normal -9.807853e-001  1.950901e-001  0.000000e+000
    outer loop
      vertex -4.307090e+000  3.097300e+000  3.900000e+001
      vertex -4.307090e+000  3.097300e+000  4.132557e+001
      vertex -4.250000e+000  3.384313e+000  3.900000e+001
    endloop
  endfacet
  facet normal -9.807853e-001  1.950901e-001  0.000000e+000
    outer loop
      vertex -4.250000e+000  3.384313e+000  3.900000e+001
      vertex -4.307090e+000  3.097300e+000  4.132557e+001
      vertex -4.250000e+000  3.384313e+000  4.132557e+001
    endloop
  endfacet
  facet normal  9.807853e-001  1.950901e-001  0.000000e+000
    outer loop
      vertex  4.250000e+000  3.384313e+000  3.900000e+001
      vertex  4.250000e+000  3.384313e+000  4.132557e+001
      vertex  4.307090e+000  3.097300e+000  3.900000e+001
    endloop
  endfacet
  facet normal  9.807853e-001  1.950901e-001  -0.000000e+000
    outer loop
      vertex  4.307090e+000  3.097300e+000  3.900000e+001
      vertex  4.250000e+000  3.384313e+000  4.132557e+001
      vertex  4.307090e+000  3.097300e+000  4.132557e+001
    endloop
  endfacet
  facet normal  8.314698e-001  5.555700e-001  0.000000e+000
    outer loop
      vertex  4.307090e+000  3.097300e+000  3.900000e+001
      vertex  4.307090e+000  3.097300e+000  4.132557e+001
      vertex  4.469670e+000  2.853982e+000  3.900000e+001
    endloop
  endfacet
  facet normal  8.314698e-001  5.555700e-001  -0.000000e+000
    outer loop
      vertex  4.469670e+000  2.853982e+000  3.900000e+001
      vertex  4.307090e+000  3.097300e+000  4.132557e+001
      vertex  4.469670e+000  2.853982e+000  4.132557e+001
    endloop
  endfacet
  facet normal  5.555700e-001  8.314698e-001  0.000000e+000
    outer loop
      vertex  4.469670e+000  2.853982e+000  3.900000e+001
      vertex  4.469670e+000  2.853982e+000  4.132557e+001
      vertex  4.712987e+000  2.691403e+000  3.900000e+001
    endloop
  endfacet
  facet normal  5.555700e-001  8.314698e-001  -0.000000e+000
    outer loop
      vertex  4.712987e+000  2.691403e+000  3.900000e+001
      vertex  4.469670e+000  2.853982e+000  4.132557e+001
      vertex  4.712987e+000  2.691403e+000  4.132557e+001
    endloop
  endfacet
  facet normal  1.950901e-001  9.807853e-001  0.000000e+000
    outer loop
      vertex  4.712987e+000  2.691403e+000  3.900000e+001
      vertex  4.712987e+000  2.691403e+000  4.132557e+001
      vertex  5.000000e+000  2.634313e+000  3.900000e+001
    endloop
  endfacet
  facet normal  1.950901e-001  9.807853e-001  -0.000000e+000
    outer loop
      vertex  5.000000e+000  2.634313e+000  3.900000e+001
      vertex  4.712987e+000  2.691403e+000  4.132557e+001
      vertex  5.000000e+000  2.634313e+000  4.132557e+001
    endloop
  endfacet
  facet normal  1.950901e-001 -9.807853e-001  0.000000e+000
    outer loop
      vertex  5.000000e+000  4.134313e+000  3.900000e+001
      vertex  5.000000e+000  4.134313e+000  4.132557e+001
      vertex  4.712987e+000  4.077222e+000  3.900000e+001
    endloop
  endfacet
  facet normal  1.950901e-001 -9.807853e-001  0.000000e+000
    outer loop
      vertex  4.712987e+000  4.077222e+000  3.900000e+001
      vertex  5.000000e+000  4.134313e+000  4.132557e+001
      vertex  4.712987e+000  4.077222e+000  4.132557e+001
    endloop
  endfacet
  facet normal  5.555700e-001 -8.314698e-001  0.000000e+000
    outer loop
      vertex  4.712987e+000  4.077222e+000  3.900000e+001
      vertex  4.712987e+000  4.077222e+000  4.132557e+001
      vertex  4.469670e+000  3.914643e+000  3.900000e+001
    endloop
  endfacet
  facet normal  5.555700e-001 -8.314698e-001  0.000000e+000
    outer loop
      vertex  4.469670e+000  3.914643e+000  3.900000e+001
      vertex  4.712987e+000  4.077222e+000  4.132557e+001
      vertex  4.469670e+000  3.914643e+000  4.132557e+001
    endloop
  endfacet
  facet normal  8.314698e-001 -5.555700e-001  0.000000e+000
    outer loop
      vertex  4.469670e+000  3.914643e+000  3.900000e+001
      vertex  4.469670e+000  3.914643e+000  4.132557e+001
      vertex  4.307090e+000  3.671325e+000  3.900000e+001
    endloop
  endfacet
  facet normal  8.314698e-001 -5.555700e-001  0.000000e+000
    outer loop
      vertex  4.307090e+000  3.671325e+000  3.900000e+001
      vertex  4.469670e+000  3.914643e+000  4.132557e+001
      vertex  4.307090e+000  3.671325e+000  4.132557e+001
    endloop
  endfacet
  facet normal  9.807853e-001 -1.950901e-001  0.000000e+000
    outer loop
      vertex  4.307090e+000  3.671325e+000  3.900000e+001
      vertex  4.307090e+000  3.671325e+000  4.132557e+001
      vertex  4.250000e+000  3.384313e+000  3.900000e+001
    endloop
  endfacet
  facet normal  9.807853e-001 -1.950901e-001  0.000000e+000
    outer loop
      vertex  4.250000e+000  3.384313e+000  3.900000e+001
      vertex  4.307090e+000  3.671325e+000  4.132557e+001
      vertex  4.250000e+000  3.384313e+000  4.132557e+001
    endloop
  endfacet
  facet normal  0.000000e+000  9.999999e-001  -0.000000e+000
    outer loop
      vertex  5.000000e+000  5.814203e+000  4.132557e+001
      vertex  5.000000e+000  5.814203e+000  4.000000e+001
      vertex -5.000000e+000  5.814203e+000  4.132557e+001
    endloop
  endfacet
  facet normal  0.000000e+000  9.999999e-001  0.000000e+000
    outer loop
      vertex -5.000000e+000  5.814203e+000  4.132557e+001
      vertex  5.000000e+000  5.814203e+000  4.000000e+001
      vertex -5.000000e+000  5.814203e+000  4.000000e+001
    endloop
  endfacet
  facet normal  0.000000e+000  0.000000e+000 -1.000000e+000
    outer loop
      vertex  5.000000e+000  5.814203e+000  4.000000e+001
      vertex  5.000000e+000  4.514203e+000  4.000000e+001
      vertex -5.000000e+000  5.814203e+000  4.000000e+001
    endloop
  endfacet
  facet normal  0.000000e+000  0.000000e+000 -1.000000e+000
    outer loop
      vertex -5.000000e+000  5.814203e+000  4.000000e+001
      vertex  5.000000e+000  4.514203e+000  4.000000e+001
      vertex -5.000000e+000  4.514203e+000  4.000000e+001
    endloop
  endfacet
  facet normal  0.000000e+000  1.000000e+000  -0.000000e+000
    outer loop
      vertex  5.000000e+000  4.514203e+000  4.000000e+001
      vertex  5.000000e+000  4.514203e+000  3.900000e+001
      vertex -5.000000e+000  4.514203e+000  4.000000e+001
    endloop
  endfacet
  facet normal  0.000000e+000  1.000000e+000  0.000000e+000
    outer loop
      vertex -5.000000e+000  4.514203e+000  4.000000e+001
      vertex  5.000000e+000  4.514203e+000  3.900000e+001
      vertex -5.000000e+000  4.514203e+000  3.900000e+001
    endloop
  endfacet
  facet normal  0.000000e+000 -9.999999e-001  -0.000000e+000
    outer loop
      vertex  5.000000e+000  2.061183e+000  3.900000e+001
      vertex  5.000000e+000  2.061183e+000  4.132557e+001
      vertex -5.000000e+000  2.061183e+000  3.900000e+001
    endloop
  endfacet
  facet normal  0.000000e+000 -9.999999e-001  0.000000e+000
    outer loop
      vertex -5.000000e+000  2.061183e+000  3.900000e+001
      vertex  5.000000e+000  2.061183e+000  4.132557e+001
      vertex -5.000000e+000  2.061183e+000  4.132557e+001
    endloop
  endfacet
endsolid CATIA STL
