G04 #@! TF.FileFunction,Legend,Top*
%FSLAX46Y46*%
G04 Gerber Fmt 4.6, Leading zero omitted, Abs format (unit mm)*
G04 Created by KiCad (PCBNEW 4.0.7) date 03/01/18 12:10:17*
%MOMM*%
%LPD*%
G01*
G04 APERTURE LIST*
%ADD10C,0.100000*%
%ADD11C,0.300000*%
%ADD12C,0.150000*%
%ADD13C,1.000000*%
%ADD14C,0.200000*%
G04 APERTURE END LIST*
D10*
D11*
X141028572Y-53707143D02*
X142171429Y-53707143D01*
X141600000Y-54278571D02*
X141600000Y-53135714D01*
D12*
X149399998Y-84600000D02*
X127799998Y-84600000D01*
X127799998Y-84600000D02*
X127799998Y-72100000D01*
X127799998Y-72100000D02*
X132599998Y-66200000D01*
X132599998Y-66200000D02*
X144599998Y-66200000D01*
X144599998Y-66200000D02*
X149399998Y-71200000D01*
X149399998Y-71200000D02*
X149399998Y-84600000D01*
D13*
X139799998Y-51050000D02*
X139799998Y-54000000D01*
X137299998Y-54100000D02*
X137299998Y-51050000D01*
D10*
X140599998Y-63200000D02*
X141099998Y-64700000D01*
X140099998Y-66200000D02*
X140599998Y-63200000D01*
X139599998Y-63200000D02*
X140099998Y-66200000D01*
X139099998Y-66200000D02*
X139599998Y-63200000D01*
X138599998Y-63200000D02*
X139099998Y-66200000D01*
X138099998Y-66200000D02*
X138599998Y-63200000D01*
X137599998Y-63200000D02*
X138099998Y-66200000D01*
X137099998Y-66200000D02*
X137599998Y-63200000D01*
X136599998Y-63200000D02*
X137099998Y-66200000D01*
X136099998Y-64700000D02*
X136599998Y-63200000D01*
D12*
X136059998Y-64700000D02*
X134789998Y-64700000D01*
X141139998Y-64700000D02*
X142409998Y-64700000D01*
X140099998Y-59460000D02*
G75*
G03X140099998Y-59460000I-1500000J0D01*
G01*
X141599998Y-62460000D02*
X135599998Y-62460000D01*
X135599998Y-62460000D02*
X135599998Y-56460000D01*
X135599998Y-56460000D02*
X141599998Y-56460000D01*
X141599998Y-62460000D02*
X141599998Y-56460000D01*
D14*
X146492858Y-84078571D02*
X146492858Y-82578571D01*
X147064286Y-82578571D01*
X147207144Y-82650000D01*
X147278572Y-82721429D01*
X147350001Y-82864286D01*
X147350001Y-83078571D01*
X147278572Y-83221429D01*
X147207144Y-83292857D01*
X147064286Y-83364286D01*
X146492858Y-83364286D01*
X147921429Y-82721429D02*
X147992858Y-82650000D01*
X148135715Y-82578571D01*
X148492858Y-82578571D01*
X148635715Y-82650000D01*
X148707144Y-82721429D01*
X148778572Y-82864286D01*
X148778572Y-83007143D01*
X148707144Y-83221429D01*
X147850001Y-84078571D01*
X148778572Y-84078571D01*
X133892858Y-55178571D02*
X133892858Y-53678571D01*
X134250001Y-53678571D01*
X134464286Y-53750000D01*
X134607144Y-53892857D01*
X134678572Y-54035714D01*
X134750001Y-54321429D01*
X134750001Y-54535714D01*
X134678572Y-54821429D01*
X134607144Y-54964286D01*
X134464286Y-55107143D01*
X134250001Y-55178571D01*
X133892858Y-55178571D01*
X136178572Y-55178571D02*
X135321429Y-55178571D01*
X135750001Y-55178571D02*
X135750001Y-53678571D01*
X135607144Y-53892857D01*
X135464286Y-54035714D01*
X135321429Y-54107143D01*
X146550001Y-65278571D02*
X146050001Y-64564286D01*
X145692858Y-65278571D02*
X145692858Y-63778571D01*
X146264286Y-63778571D01*
X146407144Y-63850000D01*
X146478572Y-63921429D01*
X146550001Y-64064286D01*
X146550001Y-64278571D01*
X146478572Y-64421429D01*
X146407144Y-64492857D01*
X146264286Y-64564286D01*
X145692858Y-64564286D01*
X147978572Y-65278571D02*
X147121429Y-65278571D01*
X147550001Y-65278571D02*
X147550001Y-63778571D01*
X147407144Y-63992857D01*
X147264286Y-64135714D01*
X147121429Y-64207143D01*
X129800000Y-60007143D02*
X130014286Y-60078571D01*
X130371429Y-60078571D01*
X130514286Y-60007143D01*
X130585715Y-59935714D01*
X130657143Y-59792857D01*
X130657143Y-59650000D01*
X130585715Y-59507143D01*
X130514286Y-59435714D01*
X130371429Y-59364286D01*
X130085715Y-59292857D01*
X129942857Y-59221429D01*
X129871429Y-59150000D01*
X129800000Y-59007143D01*
X129800000Y-58864286D01*
X129871429Y-58721429D01*
X129942857Y-58650000D01*
X130085715Y-58578571D01*
X130442857Y-58578571D01*
X130657143Y-58650000D01*
X131157143Y-58578571D02*
X131514286Y-60078571D01*
X131800000Y-59007143D01*
X132085714Y-60078571D01*
X132442857Y-58578571D01*
X133800000Y-60078571D02*
X132942857Y-60078571D01*
X133371429Y-60078571D02*
X133371429Y-58578571D01*
X133228572Y-58792857D01*
X133085714Y-58935714D01*
X132942857Y-59007143D01*
M02*
