G04 #@! TF.FileFunction,Copper,L1,Top,Signal*
%FSLAX46Y46*%
G04 Gerber Fmt 4.6, Leading zero omitted, Abs format (unit mm)*
G04 Created by KiCad (PCBNEW 4.0.7) date 03/01/18 12:10:16*
%MOMM*%
%LPD*%
G01*
G04 APERTURE LIST*
%ADD10C,0.100000*%
%ADD11O,2.500000X4.000000*%
%ADD12C,15.000000*%
%ADD13C,1.800000*%
%ADD14R,1.800000X1.800000*%
%ADD15C,1.500000*%
%ADD16C,0.600000*%
%ADD17C,1.000000*%
%ADD18C,0.254000*%
G04 APERTURE END LIST*
D10*
D11*
X149399998Y-77000000D03*
D12*
X138599998Y-77000000D03*
D11*
X127799998Y-77000000D03*
D13*
X139839998Y-54050000D03*
D14*
X137299998Y-54050000D03*
D15*
X133519998Y-64700000D03*
X143679998Y-64700000D03*
X135349998Y-61710000D03*
X135349998Y-57210000D03*
X141849998Y-61710000D03*
X141849998Y-57210000D03*
D16*
X138540000Y-88320000D03*
X147140000Y-77030000D03*
X130180000Y-77000000D03*
X138590000Y-85530000D03*
X138590000Y-67930000D03*
D17*
X138599998Y-77000000D02*
X147110000Y-77000000D01*
X147110000Y-77000000D02*
X147140000Y-77030000D01*
X138599998Y-77000000D02*
X130180000Y-77000000D01*
X138599998Y-77000000D02*
X138599998Y-85520002D01*
X138599998Y-85520002D02*
X138590000Y-85530000D01*
X138599998Y-77000000D02*
X138599998Y-67939998D01*
X138599998Y-67939998D02*
X138590000Y-67930000D01*
X127799998Y-77000000D02*
X127799998Y-80409998D01*
X127799998Y-80409998D02*
X134270000Y-86880000D01*
X134270000Y-86880000D02*
X143800000Y-86880000D01*
X143800000Y-86880000D02*
X149399998Y-81280002D01*
X149399998Y-81280002D02*
X149399998Y-77000000D01*
X141849998Y-61710000D02*
X141849998Y-66450000D01*
X141849998Y-66450000D02*
X149399998Y-74000000D01*
X149399998Y-74000000D02*
X149399998Y-77000000D01*
X135349998Y-61710000D02*
X141849998Y-61710000D01*
X149399998Y-77000000D02*
X149399998Y-76250000D01*
X149399998Y-77750000D02*
X149399998Y-77000000D01*
X143679998Y-64700000D02*
X144679487Y-63700511D01*
X144679487Y-63700511D02*
X144679487Y-57193707D01*
X144679487Y-57193707D02*
X141535780Y-54050000D01*
X141535780Y-54050000D02*
X141112790Y-54050000D01*
X141112790Y-54050000D02*
X139839998Y-54050000D01*
X133519998Y-64700000D02*
X133519998Y-59040000D01*
X133519998Y-59040000D02*
X135349998Y-57210000D01*
X141849998Y-57210000D02*
X135349998Y-57210000D01*
D18*
G36*
X150772998Y-85467792D02*
X150563610Y-86520461D01*
X149985564Y-87385566D01*
X149120460Y-87963611D01*
X148067791Y-88173000D01*
X142000000Y-88173000D01*
X141874863Y-88197891D01*
X141768776Y-88268776D01*
X141697891Y-88374863D01*
X141673000Y-88500000D01*
X141673000Y-89967793D01*
X141615853Y-90255094D01*
X141471353Y-90471354D01*
X141255094Y-90615853D01*
X140967793Y-90673000D01*
X136232203Y-90673000D01*
X135944902Y-90615853D01*
X135728642Y-90471353D01*
X135584143Y-90255094D01*
X135526996Y-89967793D01*
X135526996Y-88500000D01*
X135502105Y-88374863D01*
X135431220Y-88268776D01*
X135325133Y-88197891D01*
X135199996Y-88173000D01*
X129132206Y-88173000D01*
X128079537Y-87963612D01*
X127214432Y-87385566D01*
X126636387Y-86520462D01*
X126426998Y-85467793D01*
X126426998Y-78435485D01*
X126720246Y-78874361D01*
X127022998Y-79076654D01*
X127022998Y-80409998D01*
X127082144Y-80707343D01*
X127250576Y-80959420D01*
X133720578Y-87429422D01*
X133972655Y-87597854D01*
X134270000Y-87657000D01*
X143800000Y-87657000D01*
X144097345Y-87597854D01*
X144349422Y-87429422D01*
X149949420Y-81829424D01*
X150117852Y-81577347D01*
X150176998Y-81280002D01*
X150176998Y-79076654D01*
X150479750Y-78874361D01*
X150772998Y-78435485D01*
X150772998Y-85467792D01*
X150772998Y-85467792D01*
G37*
X150772998Y-85467792D02*
X150563610Y-86520461D01*
X149985564Y-87385566D01*
X149120460Y-87963611D01*
X148067791Y-88173000D01*
X142000000Y-88173000D01*
X141874863Y-88197891D01*
X141768776Y-88268776D01*
X141697891Y-88374863D01*
X141673000Y-88500000D01*
X141673000Y-89967793D01*
X141615853Y-90255094D01*
X141471353Y-90471354D01*
X141255094Y-90615853D01*
X140967793Y-90673000D01*
X136232203Y-90673000D01*
X135944902Y-90615853D01*
X135728642Y-90471353D01*
X135584143Y-90255094D01*
X135526996Y-89967793D01*
X135526996Y-88500000D01*
X135502105Y-88374863D01*
X135431220Y-88268776D01*
X135325133Y-88197891D01*
X135199996Y-88173000D01*
X129132206Y-88173000D01*
X128079537Y-87963612D01*
X127214432Y-87385566D01*
X126636387Y-86520462D01*
X126426998Y-85467793D01*
X126426998Y-78435485D01*
X126720246Y-78874361D01*
X127022998Y-79076654D01*
X127022998Y-80409998D01*
X127082144Y-80707343D01*
X127250576Y-80959420D01*
X133720578Y-87429422D01*
X133972655Y-87597854D01*
X134270000Y-87657000D01*
X143800000Y-87657000D01*
X144097345Y-87597854D01*
X144349422Y-87429422D01*
X149949420Y-81829424D01*
X150117852Y-81577347D01*
X150176998Y-81280002D01*
X150176998Y-79076654D01*
X150479750Y-78874361D01*
X150772998Y-78435485D01*
X150772998Y-85467792D01*
G36*
X135764998Y-53023690D02*
X135764998Y-53764250D01*
X135923748Y-53923000D01*
X137172998Y-53923000D01*
X137172998Y-53903000D01*
X137426998Y-53903000D01*
X137426998Y-53923000D01*
X137446998Y-53923000D01*
X137446998Y-54177000D01*
X137426998Y-54177000D01*
X137426998Y-55426250D01*
X137585748Y-55585000D01*
X138326307Y-55585000D01*
X138559696Y-55488327D01*
X138738325Y-55309699D01*
X138834998Y-55076310D01*
X138834998Y-54699858D01*
X138841604Y-54715846D01*
X139172410Y-55047230D01*
X139604851Y-55226795D01*
X140073091Y-55227204D01*
X140505844Y-55048394D01*
X140727625Y-54827000D01*
X141213936Y-54827000D01*
X143902487Y-57515551D01*
X143902487Y-63378667D01*
X143608217Y-63672937D01*
X143476611Y-63672822D01*
X143099009Y-63828844D01*
X142809858Y-64117492D01*
X142653177Y-64494821D01*
X142652820Y-64903387D01*
X142808842Y-65280989D01*
X143097490Y-65570140D01*
X143474819Y-65726821D01*
X143883385Y-65727178D01*
X144260987Y-65571156D01*
X144550138Y-65282508D01*
X144706819Y-64905179D01*
X144706935Y-64771907D01*
X145228909Y-64249933D01*
X145397341Y-63997856D01*
X145456487Y-63700511D01*
X145456487Y-57193707D01*
X145397341Y-56896362D01*
X145228909Y-56644285D01*
X142085202Y-53500578D01*
X141833125Y-53332146D01*
X141535780Y-53273000D01*
X140727432Y-53273000D01*
X140507586Y-53052770D01*
X140075145Y-52873205D01*
X139606905Y-52872796D01*
X139174152Y-53051606D01*
X138842768Y-53382412D01*
X138834998Y-53401124D01*
X138834998Y-53023690D01*
X138753526Y-52827000D01*
X148067791Y-52827000D01*
X149120460Y-53036389D01*
X149985564Y-53614434D01*
X150563610Y-54479539D01*
X150772998Y-55532208D01*
X150772998Y-75564515D01*
X150479750Y-75125639D01*
X150176998Y-74923346D01*
X150176998Y-74000000D01*
X150117852Y-73702655D01*
X149949420Y-73450578D01*
X142626998Y-66128156D01*
X142626998Y-62385486D01*
X142720138Y-62292508D01*
X142876819Y-61915179D01*
X142877176Y-61506613D01*
X142721154Y-61129011D01*
X142432506Y-60839860D01*
X142055177Y-60683179D01*
X141646611Y-60682822D01*
X141269009Y-60838844D01*
X141174689Y-60933000D01*
X136025484Y-60933000D01*
X135932506Y-60839860D01*
X135555177Y-60683179D01*
X135146611Y-60682822D01*
X134769009Y-60838844D01*
X134479858Y-61127492D01*
X134323177Y-61504821D01*
X134322820Y-61913387D01*
X134478842Y-62290989D01*
X134767490Y-62580140D01*
X135144819Y-62736821D01*
X135553385Y-62737178D01*
X135930987Y-62581156D01*
X136025307Y-62487000D01*
X141072998Y-62487000D01*
X141072998Y-66450000D01*
X141132144Y-66747345D01*
X141300576Y-66999422D01*
X148622998Y-74321844D01*
X148622998Y-74923346D01*
X148320246Y-75125639D01*
X147989234Y-75621033D01*
X147872998Y-76205391D01*
X147872998Y-77794609D01*
X147989234Y-78378967D01*
X148320246Y-78874361D01*
X148622998Y-79076654D01*
X148622998Y-80958158D01*
X143478156Y-86103000D01*
X134591844Y-86103000D01*
X131330701Y-82841857D01*
X132937746Y-82841857D01*
X133828004Y-83784151D01*
X136787433Y-85093902D01*
X140022809Y-85171429D01*
X143041574Y-84004930D01*
X143371992Y-83784151D01*
X144262250Y-82841857D01*
X138599998Y-77179605D01*
X132937746Y-82841857D01*
X131330701Y-82841857D01*
X128576998Y-80088154D01*
X128576998Y-79076654D01*
X128879750Y-78874361D01*
X129181466Y-78422811D01*
X130428569Y-78422811D01*
X131595068Y-81441576D01*
X131815847Y-81771994D01*
X132758141Y-82662252D01*
X138420393Y-77000000D01*
X138779603Y-77000000D01*
X144441855Y-82662252D01*
X145384149Y-81771994D01*
X146693900Y-78812565D01*
X146771427Y-75577189D01*
X145604928Y-72558424D01*
X145384149Y-72228006D01*
X144441855Y-71337748D01*
X138779603Y-77000000D01*
X138420393Y-77000000D01*
X132758141Y-71337748D01*
X131815847Y-72228006D01*
X130506096Y-75187435D01*
X130428569Y-78422811D01*
X129181466Y-78422811D01*
X129210762Y-78378967D01*
X129326998Y-77794609D01*
X129326998Y-76205391D01*
X129210762Y-75621033D01*
X128879750Y-75125639D01*
X128384356Y-74794627D01*
X127799998Y-74678391D01*
X127215640Y-74794627D01*
X126720246Y-75125639D01*
X126426998Y-75564515D01*
X126426998Y-71158143D01*
X132937746Y-71158143D01*
X138599998Y-76820395D01*
X144262250Y-71158143D01*
X143371992Y-70215849D01*
X140412563Y-68906098D01*
X137177187Y-68828571D01*
X134158422Y-69995070D01*
X133828004Y-70215849D01*
X132937746Y-71158143D01*
X126426998Y-71158143D01*
X126426998Y-64903387D01*
X132492820Y-64903387D01*
X132648842Y-65280989D01*
X132937490Y-65570140D01*
X133314819Y-65726821D01*
X133723385Y-65727178D01*
X134100987Y-65571156D01*
X134390138Y-65282508D01*
X134546819Y-64905179D01*
X134547176Y-64496613D01*
X134391154Y-64119011D01*
X134296998Y-64024691D01*
X134296998Y-59361844D01*
X135421779Y-58237063D01*
X135553385Y-58237178D01*
X135930987Y-58081156D01*
X136025307Y-57987000D01*
X141174512Y-57987000D01*
X141267490Y-58080140D01*
X141644819Y-58236821D01*
X142053385Y-58237178D01*
X142430987Y-58081156D01*
X142720138Y-57792508D01*
X142876819Y-57415179D01*
X142877176Y-57006613D01*
X142721154Y-56629011D01*
X142432506Y-56339860D01*
X142055177Y-56183179D01*
X141646611Y-56182822D01*
X141269009Y-56338844D01*
X141174689Y-56433000D01*
X136025484Y-56433000D01*
X135932506Y-56339860D01*
X135555177Y-56183179D01*
X135146611Y-56182822D01*
X134769009Y-56338844D01*
X134479858Y-56627492D01*
X134323177Y-57004821D01*
X134323061Y-57138093D01*
X132970576Y-58490578D01*
X132802144Y-58742655D01*
X132742998Y-59040000D01*
X132742998Y-64024514D01*
X132649858Y-64117492D01*
X132493177Y-64494821D01*
X132492820Y-64903387D01*
X126426998Y-64903387D01*
X126426998Y-55532207D01*
X126636387Y-54479538D01*
X126732463Y-54335750D01*
X135764998Y-54335750D01*
X135764998Y-55076310D01*
X135861671Y-55309699D01*
X136040300Y-55488327D01*
X136273689Y-55585000D01*
X137014248Y-55585000D01*
X137172998Y-55426250D01*
X137172998Y-54177000D01*
X135923748Y-54177000D01*
X135764998Y-54335750D01*
X126732463Y-54335750D01*
X127214432Y-53614434D01*
X128079537Y-53036388D01*
X129132206Y-52827000D01*
X135846470Y-52827000D01*
X135764998Y-53023690D01*
X135764998Y-53023690D01*
G37*
X135764998Y-53023690D02*
X135764998Y-53764250D01*
X135923748Y-53923000D01*
X137172998Y-53923000D01*
X137172998Y-53903000D01*
X137426998Y-53903000D01*
X137426998Y-53923000D01*
X137446998Y-53923000D01*
X137446998Y-54177000D01*
X137426998Y-54177000D01*
X137426998Y-55426250D01*
X137585748Y-55585000D01*
X138326307Y-55585000D01*
X138559696Y-55488327D01*
X138738325Y-55309699D01*
X138834998Y-55076310D01*
X138834998Y-54699858D01*
X138841604Y-54715846D01*
X139172410Y-55047230D01*
X139604851Y-55226795D01*
X140073091Y-55227204D01*
X140505844Y-55048394D01*
X140727625Y-54827000D01*
X141213936Y-54827000D01*
X143902487Y-57515551D01*
X143902487Y-63378667D01*
X143608217Y-63672937D01*
X143476611Y-63672822D01*
X143099009Y-63828844D01*
X142809858Y-64117492D01*
X142653177Y-64494821D01*
X142652820Y-64903387D01*
X142808842Y-65280989D01*
X143097490Y-65570140D01*
X143474819Y-65726821D01*
X143883385Y-65727178D01*
X144260987Y-65571156D01*
X144550138Y-65282508D01*
X144706819Y-64905179D01*
X144706935Y-64771907D01*
X145228909Y-64249933D01*
X145397341Y-63997856D01*
X145456487Y-63700511D01*
X145456487Y-57193707D01*
X145397341Y-56896362D01*
X145228909Y-56644285D01*
X142085202Y-53500578D01*
X141833125Y-53332146D01*
X141535780Y-53273000D01*
X140727432Y-53273000D01*
X140507586Y-53052770D01*
X140075145Y-52873205D01*
X139606905Y-52872796D01*
X139174152Y-53051606D01*
X138842768Y-53382412D01*
X138834998Y-53401124D01*
X138834998Y-53023690D01*
X138753526Y-52827000D01*
X148067791Y-52827000D01*
X149120460Y-53036389D01*
X149985564Y-53614434D01*
X150563610Y-54479539D01*
X150772998Y-55532208D01*
X150772998Y-75564515D01*
X150479750Y-75125639D01*
X150176998Y-74923346D01*
X150176998Y-74000000D01*
X150117852Y-73702655D01*
X149949420Y-73450578D01*
X142626998Y-66128156D01*
X142626998Y-62385486D01*
X142720138Y-62292508D01*
X142876819Y-61915179D01*
X142877176Y-61506613D01*
X142721154Y-61129011D01*
X142432506Y-60839860D01*
X142055177Y-60683179D01*
X141646611Y-60682822D01*
X141269009Y-60838844D01*
X141174689Y-60933000D01*
X136025484Y-60933000D01*
X135932506Y-60839860D01*
X135555177Y-60683179D01*
X135146611Y-60682822D01*
X134769009Y-60838844D01*
X134479858Y-61127492D01*
X134323177Y-61504821D01*
X134322820Y-61913387D01*
X134478842Y-62290989D01*
X134767490Y-62580140D01*
X135144819Y-62736821D01*
X135553385Y-62737178D01*
X135930987Y-62581156D01*
X136025307Y-62487000D01*
X141072998Y-62487000D01*
X141072998Y-66450000D01*
X141132144Y-66747345D01*
X141300576Y-66999422D01*
X148622998Y-74321844D01*
X148622998Y-74923346D01*
X148320246Y-75125639D01*
X147989234Y-75621033D01*
X147872998Y-76205391D01*
X147872998Y-77794609D01*
X147989234Y-78378967D01*
X148320246Y-78874361D01*
X148622998Y-79076654D01*
X148622998Y-80958158D01*
X143478156Y-86103000D01*
X134591844Y-86103000D01*
X131330701Y-82841857D01*
X132937746Y-82841857D01*
X133828004Y-83784151D01*
X136787433Y-85093902D01*
X140022809Y-85171429D01*
X143041574Y-84004930D01*
X143371992Y-83784151D01*
X144262250Y-82841857D01*
X138599998Y-77179605D01*
X132937746Y-82841857D01*
X131330701Y-82841857D01*
X128576998Y-80088154D01*
X128576998Y-79076654D01*
X128879750Y-78874361D01*
X129181466Y-78422811D01*
X130428569Y-78422811D01*
X131595068Y-81441576D01*
X131815847Y-81771994D01*
X132758141Y-82662252D01*
X138420393Y-77000000D01*
X138779603Y-77000000D01*
X144441855Y-82662252D01*
X145384149Y-81771994D01*
X146693900Y-78812565D01*
X146771427Y-75577189D01*
X145604928Y-72558424D01*
X145384149Y-72228006D01*
X144441855Y-71337748D01*
X138779603Y-77000000D01*
X138420393Y-77000000D01*
X132758141Y-71337748D01*
X131815847Y-72228006D01*
X130506096Y-75187435D01*
X130428569Y-78422811D01*
X129181466Y-78422811D01*
X129210762Y-78378967D01*
X129326998Y-77794609D01*
X129326998Y-76205391D01*
X129210762Y-75621033D01*
X128879750Y-75125639D01*
X128384356Y-74794627D01*
X127799998Y-74678391D01*
X127215640Y-74794627D01*
X126720246Y-75125639D01*
X126426998Y-75564515D01*
X126426998Y-71158143D01*
X132937746Y-71158143D01*
X138599998Y-76820395D01*
X144262250Y-71158143D01*
X143371992Y-70215849D01*
X140412563Y-68906098D01*
X137177187Y-68828571D01*
X134158422Y-69995070D01*
X133828004Y-70215849D01*
X132937746Y-71158143D01*
X126426998Y-71158143D01*
X126426998Y-64903387D01*
X132492820Y-64903387D01*
X132648842Y-65280989D01*
X132937490Y-65570140D01*
X133314819Y-65726821D01*
X133723385Y-65727178D01*
X134100987Y-65571156D01*
X134390138Y-65282508D01*
X134546819Y-64905179D01*
X134547176Y-64496613D01*
X134391154Y-64119011D01*
X134296998Y-64024691D01*
X134296998Y-59361844D01*
X135421779Y-58237063D01*
X135553385Y-58237178D01*
X135930987Y-58081156D01*
X136025307Y-57987000D01*
X141174512Y-57987000D01*
X141267490Y-58080140D01*
X141644819Y-58236821D01*
X142053385Y-58237178D01*
X142430987Y-58081156D01*
X142720138Y-57792508D01*
X142876819Y-57415179D01*
X142877176Y-57006613D01*
X142721154Y-56629011D01*
X142432506Y-56339860D01*
X142055177Y-56183179D01*
X141646611Y-56182822D01*
X141269009Y-56338844D01*
X141174689Y-56433000D01*
X136025484Y-56433000D01*
X135932506Y-56339860D01*
X135555177Y-56183179D01*
X135146611Y-56182822D01*
X134769009Y-56338844D01*
X134479858Y-56627492D01*
X134323177Y-57004821D01*
X134323061Y-57138093D01*
X132970576Y-58490578D01*
X132802144Y-58742655D01*
X132742998Y-59040000D01*
X132742998Y-64024514D01*
X132649858Y-64117492D01*
X132493177Y-64494821D01*
X132492820Y-64903387D01*
X126426998Y-64903387D01*
X126426998Y-55532207D01*
X126636387Y-54479538D01*
X126732463Y-54335750D01*
X135764998Y-54335750D01*
X135764998Y-55076310D01*
X135861671Y-55309699D01*
X136040300Y-55488327D01*
X136273689Y-55585000D01*
X137014248Y-55585000D01*
X137172998Y-55426250D01*
X137172998Y-54177000D01*
X135923748Y-54177000D01*
X135764998Y-54335750D01*
X126732463Y-54335750D01*
X127214432Y-53614434D01*
X128079537Y-53036388D01*
X129132206Y-52827000D01*
X135846470Y-52827000D01*
X135764998Y-53023690D01*
M02*
