G04 #@! TF.FileFunction,Copper,L2,Bot,Signal*
%FSLAX46Y46*%
G04 Gerber Fmt 4.6, Leading zero omitted, Abs format (unit mm)*
G04 Created by KiCad (PCBNEW 4.0.7) date 03/01/18 12:10:16*
%MOMM*%
%LPD*%
G01*
G04 APERTURE LIST*
%ADD10C,0.100000*%
%ADD11O,2.500000X4.000000*%
%ADD12C,1.800000*%
%ADD13R,1.800000X1.800000*%
%ADD14C,1.500000*%
%ADD15C,0.600000*%
%ADD16C,1.000000*%
%ADD17C,0.254000*%
G04 APERTURE END LIST*
D10*
D11*
X149399998Y-77000000D03*
X127799998Y-77000000D03*
D12*
X139839998Y-54050000D03*
D13*
X137299998Y-54050000D03*
D14*
X133519998Y-64700000D03*
X143679998Y-64700000D03*
X135349998Y-61710000D03*
X135349998Y-57210000D03*
X141849998Y-61710000D03*
X141849998Y-57210000D03*
D15*
X138540000Y-88320000D03*
X147140000Y-77030000D03*
X130180000Y-77000000D03*
X138590000Y-85530000D03*
X138590000Y-67930000D03*
D16*
X138590000Y-85530000D02*
X138590000Y-88270000D01*
X138590000Y-88270000D02*
X138540000Y-88320000D01*
D17*
G36*
X135764998Y-53023690D02*
X135764998Y-53764250D01*
X135923748Y-53923000D01*
X137172998Y-53923000D01*
X137172998Y-53903000D01*
X137426998Y-53903000D01*
X137426998Y-53923000D01*
X137446998Y-53923000D01*
X137446998Y-54177000D01*
X137426998Y-54177000D01*
X137426998Y-55426250D01*
X137585748Y-55585000D01*
X138326307Y-55585000D01*
X138559696Y-55488327D01*
X138738325Y-55309699D01*
X138834998Y-55076310D01*
X138834998Y-54699858D01*
X138841604Y-54715846D01*
X139172410Y-55047230D01*
X139604851Y-55226795D01*
X140073091Y-55227204D01*
X140505844Y-55048394D01*
X140837228Y-54717588D01*
X141016793Y-54285147D01*
X141017202Y-53816907D01*
X140838392Y-53384154D01*
X140507586Y-53052770D01*
X140075145Y-52873205D01*
X139606905Y-52872796D01*
X139174152Y-53051606D01*
X138842768Y-53382412D01*
X138834998Y-53401124D01*
X138834998Y-53023690D01*
X138753526Y-52827000D01*
X148067791Y-52827000D01*
X149120460Y-53036389D01*
X149985564Y-53614434D01*
X150563610Y-54479539D01*
X150772998Y-55532208D01*
X150772998Y-75564515D01*
X150479750Y-75125639D01*
X149984356Y-74794627D01*
X149399998Y-74678391D01*
X148815640Y-74794627D01*
X148320246Y-75125639D01*
X147989234Y-75621033D01*
X147872998Y-76205391D01*
X147872998Y-77794609D01*
X147989234Y-78378967D01*
X148320246Y-78874361D01*
X148815640Y-79205373D01*
X149399998Y-79321609D01*
X149984356Y-79205373D01*
X150479750Y-78874361D01*
X150772998Y-78435485D01*
X150772998Y-85467792D01*
X150563610Y-86520461D01*
X149985564Y-87385566D01*
X149120460Y-87963611D01*
X148067791Y-88173000D01*
X142000000Y-88173000D01*
X141874863Y-88197891D01*
X141768776Y-88268776D01*
X141697891Y-88374863D01*
X141673000Y-88500000D01*
X141673000Y-89967793D01*
X141615853Y-90255094D01*
X141471353Y-90471354D01*
X141255094Y-90615853D01*
X140967793Y-90673000D01*
X136232203Y-90673000D01*
X135944902Y-90615853D01*
X135728642Y-90471353D01*
X135584143Y-90255094D01*
X135526996Y-89967793D01*
X135526996Y-88500000D01*
X135502105Y-88374863D01*
X135431220Y-88268776D01*
X135325133Y-88197891D01*
X135199996Y-88173000D01*
X129132206Y-88173000D01*
X128079537Y-87963612D01*
X127214432Y-87385566D01*
X126636387Y-86520462D01*
X126426998Y-85467793D01*
X126426998Y-78435485D01*
X126720246Y-78874361D01*
X127215640Y-79205373D01*
X127799998Y-79321609D01*
X128384356Y-79205373D01*
X128879750Y-78874361D01*
X129210762Y-78378967D01*
X129326998Y-77794609D01*
X129326998Y-76205391D01*
X129210762Y-75621033D01*
X128879750Y-75125639D01*
X128384356Y-74794627D01*
X127799998Y-74678391D01*
X127215640Y-74794627D01*
X126720246Y-75125639D01*
X126426998Y-75564515D01*
X126426998Y-64903387D01*
X132492820Y-64903387D01*
X132648842Y-65280989D01*
X132937490Y-65570140D01*
X133314819Y-65726821D01*
X133723385Y-65727178D01*
X134100987Y-65571156D01*
X134390138Y-65282508D01*
X134546819Y-64905179D01*
X134546820Y-64903387D01*
X142652820Y-64903387D01*
X142808842Y-65280989D01*
X143097490Y-65570140D01*
X143474819Y-65726821D01*
X143883385Y-65727178D01*
X144260987Y-65571156D01*
X144550138Y-65282508D01*
X144706819Y-64905179D01*
X144707176Y-64496613D01*
X144551154Y-64119011D01*
X144262506Y-63829860D01*
X143885177Y-63673179D01*
X143476611Y-63672822D01*
X143099009Y-63828844D01*
X142809858Y-64117492D01*
X142653177Y-64494821D01*
X142652820Y-64903387D01*
X134546820Y-64903387D01*
X134547176Y-64496613D01*
X134391154Y-64119011D01*
X134102506Y-63829860D01*
X133725177Y-63673179D01*
X133316611Y-63672822D01*
X132939009Y-63828844D01*
X132649858Y-64117492D01*
X132493177Y-64494821D01*
X132492820Y-64903387D01*
X126426998Y-64903387D01*
X126426998Y-61913387D01*
X134322820Y-61913387D01*
X134478842Y-62290989D01*
X134767490Y-62580140D01*
X135144819Y-62736821D01*
X135553385Y-62737178D01*
X135930987Y-62581156D01*
X136220138Y-62292508D01*
X136376819Y-61915179D01*
X136376820Y-61913387D01*
X140822820Y-61913387D01*
X140978842Y-62290989D01*
X141267490Y-62580140D01*
X141644819Y-62736821D01*
X142053385Y-62737178D01*
X142430987Y-62581156D01*
X142720138Y-62292508D01*
X142876819Y-61915179D01*
X142877176Y-61506613D01*
X142721154Y-61129011D01*
X142432506Y-60839860D01*
X142055177Y-60683179D01*
X141646611Y-60682822D01*
X141269009Y-60838844D01*
X140979858Y-61127492D01*
X140823177Y-61504821D01*
X140822820Y-61913387D01*
X136376820Y-61913387D01*
X136377176Y-61506613D01*
X136221154Y-61129011D01*
X135932506Y-60839860D01*
X135555177Y-60683179D01*
X135146611Y-60682822D01*
X134769009Y-60838844D01*
X134479858Y-61127492D01*
X134323177Y-61504821D01*
X134322820Y-61913387D01*
X126426998Y-61913387D01*
X126426998Y-57413387D01*
X134322820Y-57413387D01*
X134478842Y-57790989D01*
X134767490Y-58080140D01*
X135144819Y-58236821D01*
X135553385Y-58237178D01*
X135930987Y-58081156D01*
X136220138Y-57792508D01*
X136376819Y-57415179D01*
X136376820Y-57413387D01*
X140822820Y-57413387D01*
X140978842Y-57790989D01*
X141267490Y-58080140D01*
X141644819Y-58236821D01*
X142053385Y-58237178D01*
X142430987Y-58081156D01*
X142720138Y-57792508D01*
X142876819Y-57415179D01*
X142877176Y-57006613D01*
X142721154Y-56629011D01*
X142432506Y-56339860D01*
X142055177Y-56183179D01*
X141646611Y-56182822D01*
X141269009Y-56338844D01*
X140979858Y-56627492D01*
X140823177Y-57004821D01*
X140822820Y-57413387D01*
X136376820Y-57413387D01*
X136377176Y-57006613D01*
X136221154Y-56629011D01*
X135932506Y-56339860D01*
X135555177Y-56183179D01*
X135146611Y-56182822D01*
X134769009Y-56338844D01*
X134479858Y-56627492D01*
X134323177Y-57004821D01*
X134322820Y-57413387D01*
X126426998Y-57413387D01*
X126426998Y-55532207D01*
X126636387Y-54479538D01*
X126732463Y-54335750D01*
X135764998Y-54335750D01*
X135764998Y-55076310D01*
X135861671Y-55309699D01*
X136040300Y-55488327D01*
X136273689Y-55585000D01*
X137014248Y-55585000D01*
X137172998Y-55426250D01*
X137172998Y-54177000D01*
X135923748Y-54177000D01*
X135764998Y-54335750D01*
X126732463Y-54335750D01*
X127214432Y-53614434D01*
X128079537Y-53036388D01*
X129132206Y-52827000D01*
X135846470Y-52827000D01*
X135764998Y-53023690D01*
X135764998Y-53023690D01*
G37*
X135764998Y-53023690D02*
X135764998Y-53764250D01*
X135923748Y-53923000D01*
X137172998Y-53923000D01*
X137172998Y-53903000D01*
X137426998Y-53903000D01*
X137426998Y-53923000D01*
X137446998Y-53923000D01*
X137446998Y-54177000D01*
X137426998Y-54177000D01*
X137426998Y-55426250D01*
X137585748Y-55585000D01*
X138326307Y-55585000D01*
X138559696Y-55488327D01*
X138738325Y-55309699D01*
X138834998Y-55076310D01*
X138834998Y-54699858D01*
X138841604Y-54715846D01*
X139172410Y-55047230D01*
X139604851Y-55226795D01*
X140073091Y-55227204D01*
X140505844Y-55048394D01*
X140837228Y-54717588D01*
X141016793Y-54285147D01*
X141017202Y-53816907D01*
X140838392Y-53384154D01*
X140507586Y-53052770D01*
X140075145Y-52873205D01*
X139606905Y-52872796D01*
X139174152Y-53051606D01*
X138842768Y-53382412D01*
X138834998Y-53401124D01*
X138834998Y-53023690D01*
X138753526Y-52827000D01*
X148067791Y-52827000D01*
X149120460Y-53036389D01*
X149985564Y-53614434D01*
X150563610Y-54479539D01*
X150772998Y-55532208D01*
X150772998Y-75564515D01*
X150479750Y-75125639D01*
X149984356Y-74794627D01*
X149399998Y-74678391D01*
X148815640Y-74794627D01*
X148320246Y-75125639D01*
X147989234Y-75621033D01*
X147872998Y-76205391D01*
X147872998Y-77794609D01*
X147989234Y-78378967D01*
X148320246Y-78874361D01*
X148815640Y-79205373D01*
X149399998Y-79321609D01*
X149984356Y-79205373D01*
X150479750Y-78874361D01*
X150772998Y-78435485D01*
X150772998Y-85467792D01*
X150563610Y-86520461D01*
X149985564Y-87385566D01*
X149120460Y-87963611D01*
X148067791Y-88173000D01*
X142000000Y-88173000D01*
X141874863Y-88197891D01*
X141768776Y-88268776D01*
X141697891Y-88374863D01*
X141673000Y-88500000D01*
X141673000Y-89967793D01*
X141615853Y-90255094D01*
X141471353Y-90471354D01*
X141255094Y-90615853D01*
X140967793Y-90673000D01*
X136232203Y-90673000D01*
X135944902Y-90615853D01*
X135728642Y-90471353D01*
X135584143Y-90255094D01*
X135526996Y-89967793D01*
X135526996Y-88500000D01*
X135502105Y-88374863D01*
X135431220Y-88268776D01*
X135325133Y-88197891D01*
X135199996Y-88173000D01*
X129132206Y-88173000D01*
X128079537Y-87963612D01*
X127214432Y-87385566D01*
X126636387Y-86520462D01*
X126426998Y-85467793D01*
X126426998Y-78435485D01*
X126720246Y-78874361D01*
X127215640Y-79205373D01*
X127799998Y-79321609D01*
X128384356Y-79205373D01*
X128879750Y-78874361D01*
X129210762Y-78378967D01*
X129326998Y-77794609D01*
X129326998Y-76205391D01*
X129210762Y-75621033D01*
X128879750Y-75125639D01*
X128384356Y-74794627D01*
X127799998Y-74678391D01*
X127215640Y-74794627D01*
X126720246Y-75125639D01*
X126426998Y-75564515D01*
X126426998Y-64903387D01*
X132492820Y-64903387D01*
X132648842Y-65280989D01*
X132937490Y-65570140D01*
X133314819Y-65726821D01*
X133723385Y-65727178D01*
X134100987Y-65571156D01*
X134390138Y-65282508D01*
X134546819Y-64905179D01*
X134546820Y-64903387D01*
X142652820Y-64903387D01*
X142808842Y-65280989D01*
X143097490Y-65570140D01*
X143474819Y-65726821D01*
X143883385Y-65727178D01*
X144260987Y-65571156D01*
X144550138Y-65282508D01*
X144706819Y-64905179D01*
X144707176Y-64496613D01*
X144551154Y-64119011D01*
X144262506Y-63829860D01*
X143885177Y-63673179D01*
X143476611Y-63672822D01*
X143099009Y-63828844D01*
X142809858Y-64117492D01*
X142653177Y-64494821D01*
X142652820Y-64903387D01*
X134546820Y-64903387D01*
X134547176Y-64496613D01*
X134391154Y-64119011D01*
X134102506Y-63829860D01*
X133725177Y-63673179D01*
X133316611Y-63672822D01*
X132939009Y-63828844D01*
X132649858Y-64117492D01*
X132493177Y-64494821D01*
X132492820Y-64903387D01*
X126426998Y-64903387D01*
X126426998Y-61913387D01*
X134322820Y-61913387D01*
X134478842Y-62290989D01*
X134767490Y-62580140D01*
X135144819Y-62736821D01*
X135553385Y-62737178D01*
X135930987Y-62581156D01*
X136220138Y-62292508D01*
X136376819Y-61915179D01*
X136376820Y-61913387D01*
X140822820Y-61913387D01*
X140978842Y-62290989D01*
X141267490Y-62580140D01*
X141644819Y-62736821D01*
X142053385Y-62737178D01*
X142430987Y-62581156D01*
X142720138Y-62292508D01*
X142876819Y-61915179D01*
X142877176Y-61506613D01*
X142721154Y-61129011D01*
X142432506Y-60839860D01*
X142055177Y-60683179D01*
X141646611Y-60682822D01*
X141269009Y-60838844D01*
X140979858Y-61127492D01*
X140823177Y-61504821D01*
X140822820Y-61913387D01*
X136376820Y-61913387D01*
X136377176Y-61506613D01*
X136221154Y-61129011D01*
X135932506Y-60839860D01*
X135555177Y-60683179D01*
X135146611Y-60682822D01*
X134769009Y-60838844D01*
X134479858Y-61127492D01*
X134323177Y-61504821D01*
X134322820Y-61913387D01*
X126426998Y-61913387D01*
X126426998Y-57413387D01*
X134322820Y-57413387D01*
X134478842Y-57790989D01*
X134767490Y-58080140D01*
X135144819Y-58236821D01*
X135553385Y-58237178D01*
X135930987Y-58081156D01*
X136220138Y-57792508D01*
X136376819Y-57415179D01*
X136376820Y-57413387D01*
X140822820Y-57413387D01*
X140978842Y-57790989D01*
X141267490Y-58080140D01*
X141644819Y-58236821D01*
X142053385Y-58237178D01*
X142430987Y-58081156D01*
X142720138Y-57792508D01*
X142876819Y-57415179D01*
X142877176Y-57006613D01*
X142721154Y-56629011D01*
X142432506Y-56339860D01*
X142055177Y-56183179D01*
X141646611Y-56182822D01*
X141269009Y-56338844D01*
X140979858Y-56627492D01*
X140823177Y-57004821D01*
X140822820Y-57413387D01*
X136376820Y-57413387D01*
X136377176Y-57006613D01*
X136221154Y-56629011D01*
X135932506Y-56339860D01*
X135555177Y-56183179D01*
X135146611Y-56182822D01*
X134769009Y-56338844D01*
X134479858Y-56627492D01*
X134323177Y-57004821D01*
X134322820Y-57413387D01*
X126426998Y-57413387D01*
X126426998Y-55532207D01*
X126636387Y-54479538D01*
X126732463Y-54335750D01*
X135764998Y-54335750D01*
X135764998Y-55076310D01*
X135861671Y-55309699D01*
X136040300Y-55488327D01*
X136273689Y-55585000D01*
X137014248Y-55585000D01*
X137172998Y-55426250D01*
X137172998Y-54177000D01*
X135923748Y-54177000D01*
X135764998Y-54335750D01*
X126732463Y-54335750D01*
X127214432Y-53614434D01*
X128079537Y-53036388D01*
X129132206Y-52827000D01*
X135846470Y-52827000D01*
X135764998Y-53023690D01*
M02*
